<?xml version="1.0" standalone="no"?>
<!DOCTYPE svg PUBLIC "-//W3C//DTD SVG 20010904//EN"
 "http://www.w3.org/TR/2001/REC-SVG-20010904/DTD/svg10.dtd">
<svg version="1.0" xmlns="http://www.w3.org/2000/svg"
 width="500.000000pt" height="480.000000pt" viewBox="0 0 500.000000 480.000000"
 preserveAspectRatio="xMidYMid meet">

<g transform="translate(0.000000,480.000000) scale(0.100000,-0.100000)"
fill="#000000" stroke="none">
<path d="M4710 4707 c-212 -120 -482 -372 -791 -737 -145 -173 -184 -221 -173
-219 5 1 17 1 27 0 15 -1 16 -4 6 -23 -7 -13 -29 -43 -51 -67 -21 -24 -38 -48
-38 -53 0 -5 24 -20 53 -32 79 -35 91 -39 107 -37 9 2 3 -10 -15 -31 -17 -18
-54 -58 -82 -89 -140 -152 -226 -359 -183 -440 19 -35 26 -20 26 54 -1 64 3
81 36 148 57 115 161 247 266 338 101 87 128 100 240 108 93 7 112 -6 113 -81
l1 -51 24 54 c19 40 28 51 36 43 9 -9 4 -32 -19 -92 l-30 -80 44 -40 c25 -24
49 -38 56 -34 6 4 -10 -16 -37 -44 -27 -28 -53 -49 -56 -47 -4 3 -16 -5 -26
-17 -16 -18 -17 -21 -2 -15 15 5 15 2 1 -39 -21 -61 -12 -120 23 -153 l27 -26
-7 25 c-4 14 -10 44 -13 67 -8 61 33 142 99 194 47 37 54 39 116 39 78 0 112
-14 131 -54 12 -25 11 -36 -5 -90 -10 -33 -32 -76 -49 -96 l-30 -35 30 19 c49
31 85 68 116 121 23 41 29 46 35 31 17 -44 -85 -168 -175 -216 -36 -19 -36
-19 -8 -20 15 0 27 -4 27 -10 0 -16 -69 -88 -91 -95 -10 -4 -19 -13 -19 -21 0
-11 15 -14 61 -14 54 0 60 -2 49 -15 -7 -8 -35 -27 -62 -42 -59 -32 -90 -84
-92 -154 -1 -26 1 -47 4 -47 18 1 21 -4 9 -19 -10 -11 -10 -14 -1 -9 6 4 12 4
12 0 0 -19 -44 -96 -71 -125 -16 -17 -29 -35 -29 -39 0 -5 -10 -12 -22 -16
-12 -3 -28 -13 -36 -20 -7 -8 -20 -14 -28 -14 -12 0 -19 -26 -15 -52 0 -5 -32
-8 -71 -8 -98 0 -145 -15 -190 -60 -48 -48 -54 -105 -17 -169 20 -33 20 -35 2
-45 -10 -5 -36 -28 -58 -51 -22 -23 -58 -52 -80 -65 -22 -13 -56 -40 -75 -60
-19 -20 -43 -39 -52 -43 -41 -15 -14 -39 63 -56 70 -15 141 -59 171 -105 13
-20 26 -36 29 -36 20 0 60 47 85 103 l29 63 90 1 c86 1 191 17 301 48 47 14
53 19 72 62 19 45 36 101 61 199 11 40 12 42 62 48 90 12 259 88 259 117 0 22
-75 122 -139 184 -28 27 -51 53 -51 58 0 5 26 39 57 75 58 69 173 237 173 253
0 18 -31 84 -56 121 -25 36 -26 38 -14 125 18 138 24 555 11 783 -22 389 -79
910 -99 910 -4 0 -41 -19 -82 -43z m-10 -512 c-46 -139 -268 -355 -365 -355
-28 0 -34 18 -7 26 118 36 263 175 335 321 33 67 58 73 37 8z m-521 -355 c-11
-29 -71 -90 -89 -90 -5 0 -11 4 -15 9 -6 10 21 41 36 41 5 0 21 18 35 40 30
45 48 45 33 0z m646 -86 c-47 -113 -225 -252 -326 -257 -62 -3 -58 18 5 32 97
22 225 121 288 224 34 54 55 54 33 1z m-934 -98 l69 -34 -36 -30 -36 -30 -49
58 c-27 33 -49 62 -49 65 0 13 37 2 101 -29z m743 -1005 c9 -15 -51 -60 -89
-67 -44 -8 -85 2 -85 21 0 11 12 15 48 15 29 0 58 7 77 19 35 23 42 24 49 12z
m-116 -273 c11 -39 7 -49 -14 -41 -18 7 -34 42 -27 61 9 23 32 12 41 -20z
m168 -79 c3 -6 -5 -23 -20 -37 -21 -21 -37 -27 -89 -30 -60 -4 -107 8 -107 26
0 5 29 6 63 4 64 -4 127 15 127 38 0 13 17 13 26 -1z m-483 -48 c27 -11 67
-71 67 -103 0 -32 -79 -104 -129 -118 -87 -23 -163 14 -177 86 -11 62 25 113
95 134 37 12 115 12 144 1z m243 -265 c-22 -35 -88 -67 -150 -73 -68 -7 -157
12 -180 38 -17 20 -17 21 6 13 125 -40 221 -30 286 31 41 38 65 32 38 -9z"/>
<path d="M176 4668 c-122 -275 -148 -876 -66 -1543 l18 -150 -23 -40 c-12 -22
-30 -61 -40 -87 -17 -46 -17 -47 8 -102 17 -37 56 -87 118 -151 l92 -95 -59
-58 c-63 -60 -144 -170 -144 -196 0 -31 133 -101 250 -132 61 -15 71 -22 76
-44 15 -67 58 -179 82 -215 40 -58 105 -76 301 -84 l154 -6 13 -37 c15 -45 50
-93 82 -114 22 -14 25 -14 37 3 7 10 11 21 9 24 -2 4 4 13 14 20 16 13 16 12
2 -6 -14 -20 -14 -20 7 -1 13 10 20 22 18 26 -3 4 2 11 11 14 8 3 13 2 10 -2
-3 -5 17 2 43 15 51 26 179 62 221 63 25 1 25 1 3 10 -13 5 -23 14 -23 20 0 5
-9 10 -19 10 -11 0 -22 8 -25 18 -8 23 -76 52 -123 51 -21 -1 -45 0 -53 3 -44
13 -60 20 -60 28 0 4 -13 22 -30 40 -16 18 -28 36 -25 40 3 4 -31 -11 -76 -33
-76 -39 -85 -42 -169 -42 -71 0 -93 3 -107 17 -16 17 -13 17 49 11 51 -4 81
-1 136 16 80 24 95 36 49 37 -57 1 -83 13 -132 59 -42 41 -46 49 -41 78 4 20
24 49 51 76 40 39 52 45 99 49 72 6 134 -22 175 -79 l31 -42 0 30 c0 65 -78
114 -192 121 l-77 4 6 72 c3 39 10 79 14 88 14 27 10 35 -7 13 -12 -17 -17
-18 -35 -7 -17 11 -25 11 -44 -2 -22 -15 -25 -14 -55 14 -25 23 -31 35 -26 53
4 12 8 29 9 37 1 9 12 27 25 40 12 13 20 30 18 37 -3 7 -2 13 2 13 4 0 12 10
17 23 11 22 10 22 -46 19 -56 -4 -58 -3 -81 32 -13 21 -46 48 -78 65 -30 16
-66 41 -79 55 l-25 26 47 -6 c84 -12 85 -1 7 73 -72 70 -85 93 -50 93 11 0 20
3 20 8 0 4 -20 47 -45 95 -30 59 -45 101 -45 126 0 82 79 126 170 96 100 -33
169 -99 210 -200 26 -64 40 -70 40 -18 0 20 3 34 6 30 3 -3 28 10 55 29 27 19
51 34 54 34 3 0 44 -36 91 -81 47 -44 89 -77 92 -74 4 4 -13 24 -38 45 -76 67
-94 86 -123 133 -15 25 -46 67 -68 94 -72 86 -97 155 -83 231 10 51 35 57 129
31 44 -12 90 -24 103 -27 13 -2 39 -24 59 -48 21 -24 56 -51 82 -63 53 -23 76
-45 160 -160 56 -76 131 -216 144 -266 3 -12 5 -5 6 16 0 20 -6 56 -14 79 -8
23 -15 44 -15 46 0 18 127 -39 146 -65 7 -9 21 -27 33 -40 12 -13 21 -28 21
-34 0 -5 6 -23 14 -40 13 -30 39 -116 38 -127 0 -3 3 -9 8 -15 4 -5 11 -26 15
-45 11 -61 47 -174 66 -210 11 -19 19 -40 19 -47 0 -6 4 -13 8 -15 4 -1 18
-17 30 -34 27 -39 69 -51 71 -20 0 12 4 98 8 191 l8 170 -69 95 c-228 311
-520 643 -951 1078 -223 227 -605 594 -693 667 l-32 27 -24 -54z m592 -800
c-7 -20 -34 -31 -61 -24 -15 3 -27 11 -27 16 0 8 12 10 78 18 8 1 12 -3 10
-10z m228 -89 c8 -14 -18 -31 -30 -19 -9 9 0 30 14 30 5 0 12 -5 16 -11z
m-453 -161 c21 -29 16 -48 -13 -48 -20 0 -60 49 -60 73 0 23 50 6 73 -25z m25
-88 c21 0 42 4 48 10 5 5 15 5 23 1 11 -7 9 -13 -8 -30 -34 -34 -113 -24 -153
19 -26 28 -22 31 17 14 19 -7 52 -14 73 -14z m240 -127 c42 -61 43 -68 17 -99
-14 -16 -28 -37 -31 -47 -5 -16 -14 -10 -62 35 -32 30 -71 63 -89 73 l-32 19
82 22 c45 12 85 22 89 23 4 1 15 -11 26 -26z m-178 -784 c-14 -26 -82 -44
-121 -33 -45 13 -36 28 20 34 28 3 55 10 62 17 6 6 19 8 30 6 15 -4 16 -9 9
-24z m-30 -249 c0 -18 -8 -33 -25 -44 -56 -36 -71 -7 -34 65 20 39 21 40 40
23 10 -9 19 -29 19 -44z m108 -19 c7 -21 -81 -96 -129 -110 -53 -15 -141 -11
-147 7 -2 8 10 12 44 12 73 0 125 20 169 66 40 42 55 48 63 25z"/>
<path d="M3462 3313 c-166 -220 -188 -247 -173 -217 12 24 11 65 -2 57 -4 -3
-6 -7 -3 -10 3 -3 -3 -13 -14 -22 -10 -9 -69 -87 -129 -174 -88 -128 -111
-168 -117 -205 -26 -181 -133 -335 -277 -402 -108 -51 -167 -61 -322 -58 -122
2 -144 0 -167 -16 -15 -10 -30 -26 -33 -36 -10 -31 25 -416 46 -507 11 -49 22
-119 24 -158 5 -63 10 -116 31 -270 9 -68 11 -81 25 -150 11 -58 13 -153 5
-201 -4 -22 -3 -22 67 12 39 19 79 34 88 34 9 0 44 -14 79 -32 120 -59 288
-246 426 -471 l58 -94 46 5 c88 8 176 -59 279 -211 39 -58 57 -77 69 -73 121
39 250 21 443 -58 13 -6 21 5 39 49 57 140 185 221 357 226 l60 2 -5 92 c-3
56 0 113 8 144 16 68 78 160 140 207 28 21 50 41 50 44 0 3 -26 23 -56 45 -70
50 -131 116 -150 161 -12 28 -13 43 -4 70 14 40 2 60 -82 139 -121 114 -115
111 -137 91 -11 -10 -24 -15 -30 -12 -5 3 -19 -7 -31 -24 -19 -27 -20 -32 -6
-45 13 -13 22 -14 57 -5 57 16 66 5 48 -62 -14 -53 -14 -53 -51 -50 -86 8
-168 -41 -168 -100 0 -34 20 -76 49 -102 24 -22 28 -11 5 15 -9 10 -18 36 -21
59 -5 33 -2 45 17 65 29 30 81 41 119 25 46 -19 75 -105 51 -151 -16 -28 11
-25 48 6 20 16 33 22 37 15 11 -18 -25 -62 -65 -77 -36 -14 -38 -17 -29 -42
12 -31 3 -91 -14 -91 -7 0 -34 7 -62 16 -157 48 -256 -71 -190 -229 5 -13 2
-17 -12 -17 -10 0 -24 -5 -30 -11 -7 -7 -15 -2 -27 16 -27 41 -104 85 -149 85
-29 0 -45 -7 -67 -29 -37 -36 -46 -72 -31 -123 14 -46 9 -55 -37 -64 -36 -7
-42 7 -17 40 29 38 20 46 -54 46 -39 0 -98 6 -133 14 -35 8 -100 17 -146 21
-93 7 -137 22 -168 57 -19 22 -50 87 -56 118 -2 8 -12 19 -22 25 -11 5 -24 24
-30 41 -6 17 -31 52 -55 77 -24 26 -52 60 -62 77 -10 16 -23 30 -28 30 -18 0
-61 134 -61 190 0 58 24 210 42 270 15 51 48 141 61 169 6 13 11 60 10 104 -1
58 3 89 15 111 13 24 17 62 18 161 1 72 4 144 7 160 3 17 10 58 16 91 9 59 49
152 74 172 7 6 32 18 57 28 25 9 52 23 61 31 8 7 22 13 30 13 21 0 96 76 126
128 15 26 30 49 34 52 4 3 10 19 13 35 3 16 12 49 20 74 13 38 49 186 59 241
13 64 51 150 73 163 7 4 11 14 8 21 -3 9 3 17 15 21 12 3 26 15 31 26 6 10 17
19 24 19 17 0 96 85 96 103 0 8 17 28 37 45 l37 29 -25 48 c-13 27 -29 50 -35
52 -6 2 -74 -81 -152 -184z m648 -2593 c37 -26 50 -56 50 -111 0 -78 -43 -119
-124 -119 -65 0 -135 76 -136 148 -1 93 126 142 210 82z m-348 -178 c16 -14
37 -51 49 -81 11 -31 26 -59 32 -63 22 -13 -6 -62 -46 -82 -55 -26 -96 -13
-121 39 -10 22 -29 53 -42 68 -56 66 -4 167 76 150 14 -3 37 -17 52 -31z m498
-60 c0 -10 -13 -31 -30 -47 -34 -33 -111 -45 -160 -25 -38 16 -43 44 -4 30 59
-23 141 -3 164 40 13 25 30 26 30 2z"/>
<path d="M3789 363 c-13 -16 -12 -17 4 -4 16 13 21 21 13 21 -2 0 -10 -8 -17
-17z"/>
<path d="M4176 3301 c-16 -18 -16 -19 16 -30 30 -10 31 -9 14 4 -11 8 -16 21
-13 30 8 20 4 19 -17 -4z"/>
<path d="M2146 3138 c-8 -12 -28 -50 -43 -83 -25 -54 -28 -71 -28 -165 0 -97
2 -110 32 -172 88 -186 290 -285 479 -234 136 36 253 144 289 266 4 15 -9 3
-34 -32 -48 -67 -140 -131 -219 -154 -39 -12 -82 -15 -147 -12 -79 3 -101 8
-158 36 -158 78 -236 253 -193 435 9 37 23 82 32 98 19 37 12 50 -10 17z"/>
<path d="M1196 3019 c3 -5 14 -14 25 -19 15 -8 19 -7 19 3 0 8 -11 17 -25 19
-13 3 -22 1 -19 -3z"/>
<path d="M1344 2935 c10 -22 22 -44 27 -50 6 -5 2 9 -9 33 -25 55 -39 69 -18
17z"/>
<path d="M2950 2910 c-2 -154 -90 -315 -218 -400 -77 -51 -167 -73 -280 -68
-84 3 -106 8 -164 36 -76 37 -174 122 -203 176 -22 41 -51 50 -40 14 16 -55
92 -168 151 -225 94 -90 154 -117 279 -121 82 -3 111 0 159 17 216 76 363 296
341 513 -9 97 -23 130 -25 58z"/>
<path d="M1481 2750 c43 -41 109 -87 109 -77 0 2 -18 16 -40 31 -23 15 -58 41
-79 59 -21 18 -17 12 10 -13z"/>
<path d="M2017 2751 c-3 -12 -1 -21 3 -21 14 0 19 15 11 29 -6 9 -10 7 -14 -8z"/>
<path d="M843 2724 c-18 -8 -33 -20 -33 -27 0 -9 2 -9 8 0 4 7 13 9 20 4 17
-10 22 -44 8 -53 -6 -4 6 -8 26 -8 43 0 139 34 165 58 10 9 14 14 9 10 -19
-15 -77 -8 -98 12 -25 23 -59 24 -105 4z"/>
<path d="M4133 2720 c-13 -5 -23 -14 -23 -20 0 -5 -7 -10 -15 -10 -8 0 -15 -5
-15 -10 0 -6 -14 -4 -32 5 l-33 16 25 -20 c14 -12 52 -31 84 -43 l60 -22 -35
-9 c-19 -5 -38 -13 -44 -19 -7 -8 -6 -9 2 -4 7 4 19 -4 29 -19 33 -50 50 -29
44 55 -1 19 -3 52 -4 73 -1 39 -6 42 -43 27z"/>
<path d="M3480 2690 c-9 -6 -10 -10 -3 -10 6 0 15 5 18 10 8 12 4 12 -15 0z"/>
<path d="M850 2597 c0 -14 5 -29 10 -32 6 -3 10 -17 10 -29 0 -13 6 -29 14
-35 11 -9 16 -5 26 19 14 33 48 63 62 54 4 -3 8 -3 8 0 0 10 -55 34 -93 41
-35 7 -37 6 -37 -18z"/>
<path d="M1449 2473 c-32 -36 -53 -63 -47 -63 2 0 21 20 41 45 42 49 45 61 6
18z"/>
<path d="M3895 2448 c-35 -41 -95 -153 -110 -208 -11 -38 -2 -24 59 95 31 60
66 120 78 132 12 13 19 23 16 23 -4 0 -23 -19 -43 -42z"/>
<path d="M1175 2356 c22 -46 41 -79 43 -75 4 11 -56 135 -72 148 -6 5 7 -28
29 -73z"/>
<path d="M3642 2365 c12 -24 23 -43 26 -41 4 5 -36 86 -43 86 -3 0 5 -20 17
-45z"/>
<path d="M1364 2349 c-14 -28 -24 -53 -22 -55 2 -2 16 21 31 51 15 30 25 55
22 55 -3 0 -16 -23 -31 -51z"/>
<path d="M1350 2163 c-40 -15 -70 -46 -70 -71 l0 -26 28 26 c60 57 124 65 175
22 43 -36 51 -10 8 28 -25 23 -40 28 -79 27 -26 0 -54 -3 -62 -6z"/>
<path d="M3559 2141 c-38 -38 -39 -88 -4 -148 31 -52 39 -56 19 -8 -22 54 -19
121 8 139 29 20 81 20 119 0 30 -15 31 -15 24 8 -11 32 -22 38 -83 38 -46 0
-58 -4 -83 -29z"/>
<path d="M3750 2108 c0 -14 9 -33 19 -42 11 -10 25 -31 31 -47 7 -16 16 -29
21 -29 23 0 -6 82 -41 115 l-30 29 0 -26z"/>
<path d="M1241 2061 c-20 -46 -19 -93 2 -125 22 -32 42 -35 32 -3 -4 12 -10
54 -14 92 l-6 70 -14 -34z"/>
<path d="M3112 1878 c-17 -17 -15 -69 5 -90 15 -17 15 -18 -7 -18 -13 0 -21
-3 -17 -6 3 -4 48 -3 100 1 91 6 94 7 90 29 -3 13 -15 36 -27 51 -18 23 -32
29 -69 31 -26 1 -50 5 -55 8 -5 3 -14 0 -20 -6z"/>
<path d="M1812 1848 c-17 -19 -32 -39 -32 -46 0 -7 -5 -12 -12 -12 -6 0 -9 -2
-6 -6 3 -3 50 -9 104 -15 66 -7 103 -15 110 -25 10 -12 15 -12 35 5 20 16 22
23 14 47 -6 16 -20 33 -33 39 -12 5 -22 15 -22 22 0 7 -1 13 -2 14 -2 0 -30 3
-63 5 -58 5 -61 4 -93 -28z"/>
<path d="M2940 1773 c0 -5 20 -19 44 -30 39 -19 43 -20 42 -5 0 9 -12 20 -26
23 -14 4 -33 10 -42 14 -10 4 -18 3 -18 -2z"/>
<path d="M1921 1635 c-72 -39 -88 -51 -69 -53 7 -1 27 -4 43 -8 29 -5 33 -2
63 45 17 28 30 51 29 51 -1 0 -31 -16 -66 -35z"/>
<path d="M3183 1536 c-9 -19 -13 -41 -10 -50 8 -20 53 -21 91 -1 15 8 37 15
47 15 39 0 28 21 -23 45 -71 33 -85 32 -105 -9z"/>
<path d="M897 1334 c-21 -14 -37 -28 -37 -32 0 -7 110 -62 123 -62 2 0 7 8 10
19 3 11 -8 34 -28 59 l-32 41 -36 -25z"/>
<path d="M1104 1330 c-26 -10 -54 -48 -54 -72 0 -9 11 -30 25 -45 l26 -28 -6
43 c-9 59 12 82 73 82 36 0 49 -5 72 -30 33 -35 40 -37 40 -11 0 11 -14 31
-31 45 -24 20 -41 26 -77 25 -26 0 -57 -4 -68 -9z"/>
<path d="M3801 1314 c-37 -30 -41 -72 -11 -99 20 -18 20 -17 20 22 0 52 23 73
79 73 35 0 48 -5 69 -30 15 -16 30 -30 34 -30 18 0 6 33 -21 61 -25 25 -37 29
-84 29 -45 0 -61 -5 -86 -26z"/>
<path d="M3323 1273 c9 -2 25 -2 35 0 9 3 1 5 -18 5 -19 0 -27 -2 -17 -5z"/>
<path d="M3393 1273 c9 -2 23 -2 30 0 6 3 -1 5 -18 5 -16 0 -22 -2 -12 -5z"/>
<path d="M3229 1258 c-23 -6 -55 -29 -90 -66 -46 -48 -48 -51 -10 -18 23 21
71 51 105 67 62 29 60 35 -5 17z"/>
<path d="M698 1218 c-57 -70 -68 -92 -58 -108 30 -47 -23 -137 -145 -244 -36
-32 -63 -62 -58 -66 4 -3 28 -13 53 -21 27 -8 62 -31 87 -56 60 -59 77 -125
70 -263 -3 -58 -8 -112 -11 -120 -5 -13 5 -14 64 -12 45 2 87 -2 117 -12 68
-23 153 -93 209 -173 26 -37 51 -72 55 -76 3 -5 30 3 58 17 85 43 171 58 307
54 l122 -4 31 63 c63 128 161 201 285 210 l64 6 15 56 c8 31 18 65 21 76 l7
20 -13 -20 c-7 -11 -22 -21 -33 -22 -29 -4 -78 -12 -175 -29 -47 -8 -123 -16
-170 -17 l-85 -2 3 -28 c3 -27 2 -29 -25 -23 -24 5 -32 0 -56 -34 -15 -22 -42
-49 -60 -60 -39 -24 -107 -27 -107 -5 0 9 9 15 25 15 35 0 79 24 104 56 31 40
25 50 -13 21 -76 -58 -116 -41 -116 48 0 47 3 56 31 79 17 14 37 26 45 26 25
0 78 -30 101 -58 28 -34 40 -22 26 28 -7 27 -7 40 0 43 7 2 5 12 -4 25 l-16
22 -22 -30 c-27 -38 -38 -38 -46 0 -9 41 -19 44 -52 17 -15 -13 -43 -33 -61
-46 l-32 -22 -26 20 c-34 27 -40 26 -48 -3 -3 -13 -26 -46 -51 -73 -55 -62
-126 -95 -192 -91 -65 4 -70 28 -6 28 26 0 66 9 88 19 38 17 125 101 125 120
0 5 3 16 6 25 6 14 3 14 -22 1 -16 -8 -35 -15 -42 -15 -22 0 -72 63 -72 90 0
32 26 70 48 70 34 0 84 -41 99 -80 22 -54 37 -51 30 5 -4 44 -4 45 14 29 18
-16 19 -15 29 10 15 40 14 41 -35 40 -47 -2 -47 -2 -13 48 l19 28 -28 10 c-15
6 -35 13 -43 16 -11 4 -6 12 18 30 18 14 30 30 26 35 -3 5 -12 2 -20 -6 -17
-17 -47 -19 -72 -6 -12 6 -38 2 -80 -11 -54 -18 -68 -19 -103 -9 -48 15 -47
37 2 33 19 -1 48 2 64 7 28 8 27 9 -14 9 -81 0 -101 56 -46 128 46 60 134 51
183 -19 l22 -32 0 29 c0 59 -96 109 -179 93 -24 -5 -31 -1 -49 31 -12 20 -32
50 -45 66 l-24 30 -30 -22 c-25 -18 -33 -19 -42 -9 -8 10 -7 17 1 25 7 7 9 12
6 12 -3 0 -21 -19 -40 -42z"/>
<path d="M3510 1246 c0 -2 7 -7 16 -10 8 -3 12 -2 9 4 -6 10 -25 14 -25 6z"/>
<path d="M3555 1224 c6 -5 23 -20 40 -34 29 -24 29 -24 10 -2 -11 13 -29 28
-40 34 -11 6 -15 6 -10 2z"/>
<path d="M1430 1216 c0 -2 6 -9 14 -15 10 -9 16 -8 26 4 11 13 8 15 -14 15
-14 0 -26 -2 -26 -4z"/>
<path d="M1352 1201 c-10 -6 -10 -10 3 -21 8 -7 15 -10 15 -7 0 3 3 12 6 21 7
17 -3 20 -24 7z"/>
<path d="M1530 1202 c0 -4 4 -13 9 -20 6 -10 10 -10 20 1 9 12 7 16 -9 20 -11
3 -20 2 -20 -1z"/>
<path d="M1268 1166 c-23 -17 -23 -22 2 -29 16 -4 20 0 20 19 0 28 0 28 -22
10z"/>
<path d="M1620 1152 c0 -15 5 -19 20 -15 12 3 19 6 18 7 -2 1 -11 8 -20 15
-16 12 -18 11 -18 -7z"/>
<path d="M1178 1108 c-16 -16 -28 -31 -28 -33 0 -3 18 -5 41 -5 37 0 40 2 33
23 -13 43 -18 44 -46 15z"/>
<path d="M1686 1094 c-8 -21 -3 -27 22 -22 18 3 18 4 2 21 -16 17 -18 17 -24
1z"/>
<path d="M3430 1079 c-151 -68 -201 -244 -109 -382 47 -71 70 -66 39 8 -18 42
-30 131 -24 174 14 105 97 182 210 196 30 3 54 11 54 16 0 18 -123 9 -170 -12z"/>
<path d="M1158 1011 c3 -20 9 -28 18 -24 11 4 10 9 -3 29 -20 30 -20 30 -15
-5z"/>
<path d="M1731 1012 c-9 -17 -8 -22 10 -27 27 -9 30 -5 14 24 -12 24 -13 24
-24 3z"/>
<path d="M3017 956 c-18 -125 -6 -196 42 -243 40 -39 178 -123 201 -122 8 0
-8 11 -36 25 -59 28 -132 101 -165 165 -16 32 -24 69 -28 134 -6 86 -7 88 -14
41z"/>
<path d="M1753 923 l-23 -15 26 -20 c30 -24 32 -23 24 18 -5 30 -6 31 -27 17z"/>
<path d="M2314 904 c-18 -14 -18 -15 4 -4 12 6 22 13 22 15 0 8 -5 6 -26 -11z"/>
<path d="M1742 829 l-23 -9 21 -31 c12 -16 23 -29 25 -27 6 8 13 78 7 77 -4 0
-17 -4 -30 -10z"/>
<path d="M1680 733 c1 -5 6 -17 13 -29 12 -21 12 -21 35 7 l24 29 -36 0 c-20
0 -36 -3 -36 -7z"/>
<path d="M1258 673 c-25 -6 -22 -18 7 -31 23 -11 25 -10 25 13 0 25 -2 26 -32
18z"/>
<path d="M1620 655 c0 -25 0 -25 26 -8 24 15 25 17 8 24 -30 12 -34 10 -34
-16z"/>
<path d="M1540 630 c0 -5 5 -10 11 -10 5 0 7 5 4 10 -3 6 -8 10 -11 10 -2 0
-4 -4 -4 -10z"/>
</g>
</svg>
